<mxfile host="app.diagrams.net" agent="Mozilla/5.0 (Windows NT 10.0; Win64; x64) AppleWebKit/537.36 (KHTML, like Gecko) Chrome/132.0.0.0 Safari/537.36" version="26.0.10">
  <diagram id="354Darhfc1ILCYLYgaSA" name="Página-1">
    <mxGraphModel dx="1723" dy="872" grid="0" gridSize="10" guides="1" tooltips="1" connect="1" arrows="1" fold="1" page="0" pageScale="1" pageWidth="827" pageHeight="1169" math="0" shadow="0">
      <root>
        <mxCell id="0" />
        <mxCell id="1" parent="0" />
        <mxCell id="2oPdE4KqQgnJ8rn5wDg9-1" value="INICIO" style="strokeWidth=2;html=1;shape=mxgraph.flowchart.start_1;whiteSpace=wrap;fillColor=#dae8fc;strokeColor=#6c8ebf;" vertex="1" parent="1">
          <mxGeometry x="-46" y="349" width="100" height="64" as="geometry" />
        </mxCell>
        <mxCell id="2oPdE4KqQgnJ8rn5wDg9-2" value="FIM" style="strokeWidth=2;html=1;shape=mxgraph.flowchart.start_1;whiteSpace=wrap;fillColor=#dae8fc;strokeColor=#6c8ebf;" vertex="1" parent="1">
          <mxGeometry x="-46" y="1104" width="100" height="60" as="geometry" />
        </mxCell>
        <mxCell id="2oPdE4KqQgnJ8rn5wDg9-3" value="&lt;div&gt;&lt;br&gt;&lt;/div&gt;salario" style="html=1;strokeWidth=2;shape=manualInput;whiteSpace=wrap;rounded=1;size=26;arcSize=11;fillColor=#d5e8d4;strokeColor=#82b366;" vertex="1" parent="1">
          <mxGeometry x="-47" y="544" width="100" height="61" as="geometry" />
        </mxCell>
        <mxCell id="2oPdE4KqQgnJ8rn5wDg9-4" value="&lt;div&gt;&lt;br&gt;&lt;/div&gt;nome" style="html=1;strokeWidth=2;shape=manualInput;whiteSpace=wrap;rounded=1;size=26;arcSize=11;fillColor=#d5e8d4;strokeColor=#82b366;" vertex="1" parent="1">
          <mxGeometry x="-47" y="448" width="100" height="60" as="geometry" />
        </mxCell>
        <mxCell id="2oPdE4KqQgnJ8rn5wDg9-28" value="" style="edgeStyle=none;curved=1;rounded=0;orthogonalLoop=1;jettySize=auto;html=1;fontSize=12;startSize=8;endSize=8;" edge="1" parent="1" source="2oPdE4KqQgnJ8rn5wDg9-5" target="2oPdE4KqQgnJ8rn5wDg9-6">
          <mxGeometry relative="1" as="geometry" />
        </mxCell>
        <mxCell id="2oPdE4KqQgnJ8rn5wDg9-5" value="&lt;div&gt;&lt;br&gt;&lt;/div&gt;&lt;div&gt;faturamento&lt;/div&gt;" style="html=1;strokeWidth=2;shape=manualInput;whiteSpace=wrap;rounded=1;size=26;arcSize=11;fillColor=#d5e8d4;strokeColor=#82b366;" vertex="1" parent="1">
          <mxGeometry x="-51" y="639" width="100" height="60" as="geometry" />
        </mxCell>
        <mxCell id="2oPdE4KqQgnJ8rn5wDg9-8" value="" style="edgeStyle=none;curved=1;rounded=0;orthogonalLoop=1;jettySize=auto;html=1;fontSize=12;startSize=8;endSize=8;" edge="1" parent="1" source="2oPdE4KqQgnJ8rn5wDg9-6" target="2oPdE4KqQgnJ8rn5wDg9-7">
          <mxGeometry relative="1" as="geometry" />
        </mxCell>
        <mxCell id="2oPdE4KqQgnJ8rn5wDg9-34" value="sim" style="edgeLabel;html=1;align=center;verticalAlign=middle;resizable=0;points=[];fontSize=12;" vertex="1" connectable="0" parent="2oPdE4KqQgnJ8rn5wDg9-8">
          <mxGeometry x="-0.2962" y="2" relative="1" as="geometry">
            <mxPoint as="offset" />
          </mxGeometry>
        </mxCell>
        <mxCell id="2oPdE4KqQgnJ8rn5wDg9-12" value="" style="edgeStyle=none;curved=1;rounded=0;orthogonalLoop=1;jettySize=auto;html=1;fontSize=12;startSize=8;endSize=8;" edge="1" parent="1" source="2oPdE4KqQgnJ8rn5wDg9-6" target="2oPdE4KqQgnJ8rn5wDg9-11">
          <mxGeometry relative="1" as="geometry" />
        </mxCell>
        <mxCell id="2oPdE4KqQgnJ8rn5wDg9-35" value="não" style="edgeLabel;html=1;align=center;verticalAlign=middle;resizable=0;points=[];fontSize=12;" vertex="1" connectable="0" parent="2oPdE4KqQgnJ8rn5wDg9-12">
          <mxGeometry x="0.0087" y="2" relative="1" as="geometry">
            <mxPoint as="offset" />
          </mxGeometry>
        </mxCell>
        <mxCell id="2oPdE4KqQgnJ8rn5wDg9-6" value="faturamento &amp;gt;5000" style="strokeWidth=2;html=1;shape=mxgraph.flowchart.decision;whiteSpace=wrap;fillColor=#f8cecc;strokeColor=#b85450;" vertex="1" parent="1">
          <mxGeometry x="-52" y="760.5" width="101" height="78" as="geometry" />
        </mxCell>
        <mxCell id="2oPdE4KqQgnJ8rn5wDg9-7" value="salario = salario + 300" style="whiteSpace=wrap;html=1;strokeWidth=2;fillColor=#fff2cc;strokeColor=#d6b656;" vertex="1" parent="1">
          <mxGeometry x="126" y="766" width="128.5" height="55" as="geometry" />
        </mxCell>
        <mxCell id="2oPdE4KqQgnJ8rn5wDg9-36" value="" style="edgeStyle=none;curved=1;rounded=0;orthogonalLoop=1;jettySize=auto;html=1;fontSize=12;startSize=8;endSize=8;" edge="1" parent="1" source="2oPdE4KqQgnJ8rn5wDg9-11" target="2oPdE4KqQgnJ8rn5wDg9-23">
          <mxGeometry relative="1" as="geometry" />
        </mxCell>
        <mxCell id="2oPdE4KqQgnJ8rn5wDg9-11" value="" style="verticalLabelPosition=bottom;verticalAlign=top;html=1;shape=mxgraph.flowchart.on-page_reference;" vertex="1" parent="1">
          <mxGeometry x="-14" y="915" width="34" height="32" as="geometry" />
        </mxCell>
        <mxCell id="2oPdE4KqQgnJ8rn5wDg9-16" style="edgeStyle=none;curved=1;rounded=0;orthogonalLoop=1;jettySize=auto;html=1;entryX=0.5;entryY=0.202;entryDx=0;entryDy=0;entryPerimeter=0;fontSize=12;startSize=8;endSize=8;" edge="1" parent="1" source="2oPdE4KqQgnJ8rn5wDg9-1" target="2oPdE4KqQgnJ8rn5wDg9-4">
          <mxGeometry relative="1" as="geometry" />
        </mxCell>
        <mxCell id="2oPdE4KqQgnJ8rn5wDg9-17" style="edgeStyle=none;curved=1;rounded=0;orthogonalLoop=1;jettySize=auto;html=1;exitX=0.5;exitY=1;exitDx=0;exitDy=0;entryX=0.489;entryY=0.224;entryDx=0;entryDy=0;entryPerimeter=0;fontSize=12;startSize=8;endSize=8;" edge="1" parent="1" source="2oPdE4KqQgnJ8rn5wDg9-4" target="2oPdE4KqQgnJ8rn5wDg9-3">
          <mxGeometry relative="1" as="geometry" />
        </mxCell>
        <mxCell id="2oPdE4KqQgnJ8rn5wDg9-18" style="edgeStyle=none;curved=1;rounded=0;orthogonalLoop=1;jettySize=auto;html=1;exitX=0.5;exitY=1;exitDx=0;exitDy=0;entryX=0.548;entryY=0.228;entryDx=0;entryDy=0;entryPerimeter=0;fontSize=12;startSize=8;endSize=8;" edge="1" parent="1" source="2oPdE4KqQgnJ8rn5wDg9-3" target="2oPdE4KqQgnJ8rn5wDg9-5">
          <mxGeometry relative="1" as="geometry" />
        </mxCell>
        <mxCell id="2oPdE4KqQgnJ8rn5wDg9-20" style="edgeStyle=none;curved=1;rounded=0;orthogonalLoop=1;jettySize=auto;html=1;exitX=0.5;exitY=1;exitDx=0;exitDy=0;entryX=1;entryY=0.5;entryDx=0;entryDy=0;entryPerimeter=0;fontSize=12;startSize=8;endSize=8;" edge="1" parent="1" source="2oPdE4KqQgnJ8rn5wDg9-7" target="2oPdE4KqQgnJ8rn5wDg9-11">
          <mxGeometry relative="1" as="geometry">
            <Array as="points">
              <mxPoint x="139" y="948" />
            </Array>
          </mxGeometry>
        </mxCell>
        <mxCell id="2oPdE4KqQgnJ8rn5wDg9-23" value="salario" style="strokeWidth=2;html=1;shape=mxgraph.flowchart.display;whiteSpace=wrap;fillColor=#e1d5e7;strokeColor=#9673a6;" vertex="1" parent="1">
          <mxGeometry x="-47" y="1001" width="100" height="60" as="geometry" />
        </mxCell>
        <mxCell id="2oPdE4KqQgnJ8rn5wDg9-24" style="edgeStyle=none;curved=1;rounded=0;orthogonalLoop=1;jettySize=auto;html=1;exitX=0.5;exitY=1;exitDx=0;exitDy=0;exitPerimeter=0;entryX=0.5;entryY=0;entryDx=0;entryDy=0;entryPerimeter=0;fontSize=12;startSize=8;endSize=8;" edge="1" parent="1" source="2oPdE4KqQgnJ8rn5wDg9-11" target="2oPdE4KqQgnJ8rn5wDg9-23">
          <mxGeometry relative="1" as="geometry" />
        </mxCell>
        <mxCell id="2oPdE4KqQgnJ8rn5wDg9-25" style="edgeStyle=none;curved=1;rounded=0;orthogonalLoop=1;jettySize=auto;html=1;exitX=0.5;exitY=1;exitDx=0;exitDy=0;exitPerimeter=0;entryX=0.5;entryY=0;entryDx=0;entryDy=0;entryPerimeter=0;fontSize=12;startSize=8;endSize=8;" edge="1" parent="1" source="2oPdE4KqQgnJ8rn5wDg9-23" target="2oPdE4KqQgnJ8rn5wDg9-2">
          <mxGeometry relative="1" as="geometry" />
        </mxCell>
      </root>
    </mxGraphModel>
  </diagram>
</mxfile>
